<mxfile host="Electron" agent="Mozilla/5.0 (Windows NT 10.0; Win64; x64) AppleWebKit/537.36 (KHTML, like Gecko) draw.io/27.0.9 Chrome/134.0.6998.205 Electron/35.4.0 Safari/537.36" version="27.0.9">
  <diagram name="Страница — 1" id="z2m44n3lXc37fVPM7gY4">
    <mxGraphModel dx="1177" dy="756" grid="1" gridSize="10" guides="1" tooltips="1" connect="1" arrows="1" fold="1" page="1" pageScale="1" pageWidth="827" pageHeight="1169" math="0" shadow="0">
      <root>
        <mxCell id="0" />
        <mxCell id="1" parent="0" />
        <mxCell id="xGlrEXVBaf4qIYOEKneg-71" value="" style="shape=flexArrow;endArrow=classic;html=1;rounded=0;targetPerimeterSpacing=0;sourcePerimeterSpacing=-4;" parent="1" source="xGlrEXVBaf4qIYOEKneg-23" edge="1">
          <mxGeometry width="50" height="50" relative="1" as="geometry">
            <mxPoint x="70" y="360" as="sourcePoint" />
            <mxPoint x="210" y="555" as="targetPoint" />
            <Array as="points">
              <mxPoint x="60" y="555" />
            </Array>
          </mxGeometry>
        </mxCell>
        <mxCell id="xGlrEXVBaf4qIYOEKneg-24" value="" style="shape=flexArrow;endArrow=classic;html=1;rounded=0;spacingTop=0;sourcePerimeterSpacing=-8;dashed=1;" parent="1" source="xGlrEXVBaf4qIYOEKneg-23" edge="1">
          <mxGeometry width="50" height="50" relative="1" as="geometry">
            <mxPoint x="200" y="240" as="sourcePoint" />
            <mxPoint x="240" y="230" as="targetPoint" />
          </mxGeometry>
        </mxCell>
        <mxCell id="xGlrEXVBaf4qIYOEKneg-2" value="MAIN" style="rounded=0;whiteSpace=wrap;html=1;fontFamily=Gilroy;fontStyle=1;fontSize=18;" parent="1" vertex="1">
          <mxGeometry x="160" y="280" width="120" height="60" as="geometry" />
        </mxCell>
        <mxCell id="xGlrEXVBaf4qIYOEKneg-4" value="Server" style="text;html=1;align=left;verticalAlign=middle;whiteSpace=wrap;rounded=0;" parent="1" vertex="1">
          <mxGeometry x="160" y="260" width="120" height="20" as="geometry" />
        </mxCell>
        <mxCell id="xGlrEXVBaf4qIYOEKneg-5" value="AuthCentral" style="rounded=0;whiteSpace=wrap;html=1;fontFamily=Gilroy;fontStyle=1;fontSize=18;" parent="1" vertex="1">
          <mxGeometry x="580" y="280" width="120" height="60" as="geometry" />
        </mxCell>
        <mxCell id="xGlrEXVBaf4qIYOEKneg-6" value="Server" style="text;html=1;align=right;verticalAlign=middle;whiteSpace=wrap;rounded=0;" parent="1" vertex="1">
          <mxGeometry x="580" y="260" width="120" height="20" as="geometry" />
        </mxCell>
        <mxCell id="xGlrEXVBaf4qIYOEKneg-7" value="Client" style="rounded=1;whiteSpace=wrap;html=1;fontFamily=Gilroy;fontStyle=1;fontSize=16;" parent="1" vertex="1">
          <mxGeometry x="370" y="510" width="120" height="60" as="geometry" />
        </mxCell>
        <mxCell id="xGlrEXVBaf4qIYOEKneg-8" value="" style="endArrow=classic;html=1;rounded=0;curved=1;fillColor=#f8cecc;strokeColor=#000000;" parent="1" source="xGlrEXVBaf4qIYOEKneg-2" target="xGlrEXVBaf4qIYOEKneg-5" edge="1">
          <mxGeometry width="50" height="50" relative="1" as="geometry">
            <mxPoint x="360" y="250" as="sourcePoint" />
            <mxPoint x="410" y="200" as="targetPoint" />
            <Array as="points">
              <mxPoint x="440" y="140" />
            </Array>
          </mxGeometry>
        </mxCell>
        <mxCell id="xGlrEXVBaf4qIYOEKneg-10" value="&amp;nbsp;0. server_hello&amp;nbsp;" style="edgeLabel;html=1;align=center;verticalAlign=middle;resizable=0;points=[];fontFamily=Gilroy;labelBorderColor=default;fontSize=12;" parent="xGlrEXVBaf4qIYOEKneg-8" vertex="1" connectable="0">
          <mxGeometry x="-0.1743" y="-24" relative="1" as="geometry">
            <mxPoint x="-170" y="58" as="offset" />
          </mxGeometry>
        </mxCell>
        <mxCell id="xGlrEXVBaf4qIYOEKneg-9" value="" style="endArrow=none;html=1;rounded=0;curved=1;startFill=1;startArrow=blockThin;dashed=1;" parent="1" edge="1">
          <mxGeometry width="50" height="50" relative="1" as="geometry">
            <mxPoint x="280" y="280" as="sourcePoint" />
            <mxPoint x="580" y="280" as="targetPoint" />
            <Array as="points">
              <mxPoint x="440" y="210" />
            </Array>
          </mxGeometry>
        </mxCell>
        <mxCell id="xGlrEXVBaf4qIYOEKneg-12" value="_0. server_ack" style="edgeLabel;html=1;align=center;verticalAlign=middle;resizable=0;points=[];fontFamily=Gilroy;labelBackgroundColor=none;fontSize=12;" parent="xGlrEXVBaf4qIYOEKneg-9" vertex="1" connectable="0">
          <mxGeometry x="-0.1919" y="-43" relative="1" as="geometry">
            <mxPoint x="13" y="-11" as="offset" />
          </mxGeometry>
        </mxCell>
        <mxCell id="xGlrEXVBaf4qIYOEKneg-13" value="" style="endArrow=classic;html=1;rounded=0;curved=1;fillColor=#f8cecc;strokeColor=#B85450;" parent="1" source="xGlrEXVBaf4qIYOEKneg-7" target="xGlrEXVBaf4qIYOEKneg-2" edge="1">
          <mxGeometry width="50" height="50" relative="1" as="geometry">
            <mxPoint x="230" y="480" as="sourcePoint" />
            <mxPoint x="280" y="430" as="targetPoint" />
            <Array as="points">
              <mxPoint x="20" y="550" />
            </Array>
          </mxGeometry>
        </mxCell>
        <mxCell id="xGlrEXVBaf4qIYOEKneg-15" value="&amp;nbsp;1. getAuthorizationServer&amp;nbsp;" style="edgeLabel;html=1;align=center;verticalAlign=middle;resizable=0;points=[];fontFamily=Gilroy;labelBorderColor=#B85450;fontSize=12;" parent="xGlrEXVBaf4qIYOEKneg-13" vertex="1" connectable="0">
          <mxGeometry x="0.6753" y="-12" relative="1" as="geometry">
            <mxPoint x="151" y="129" as="offset" />
          </mxGeometry>
        </mxCell>
        <mxCell id="xGlrEXVBaf4qIYOEKneg-16" value="" style="endArrow=classic;html=1;rounded=0;curved=1;dashed=1;fillColor=#f8cecc;strokeColor=#b85450;" parent="1" source="xGlrEXVBaf4qIYOEKneg-2" target="xGlrEXVBaf4qIYOEKneg-7" edge="1">
          <mxGeometry width="50" height="50" relative="1" as="geometry">
            <mxPoint x="620" y="661" as="sourcePoint" />
            <mxPoint x="445" y="460" as="targetPoint" />
            <Array as="points">
              <mxPoint x="140" y="500" />
            </Array>
          </mxGeometry>
        </mxCell>
        <mxCell id="xGlrEXVBaf4qIYOEKneg-18" value="2. receiveAuthServer" style="edgeLabel;html=1;align=center;verticalAlign=middle;resizable=0;points=[];fontFamily=Gilroy;fontSize=12;labelBackgroundColor=none;" parent="xGlrEXVBaf4qIYOEKneg-16" vertex="1" connectable="0">
          <mxGeometry x="0.5032" y="16" relative="1" as="geometry">
            <mxPoint x="8" y="-32" as="offset" />
          </mxGeometry>
        </mxCell>
        <mxCell id="xGlrEXVBaf4qIYOEKneg-19" value="" style="endArrow=classic;html=1;rounded=0;curved=1;fillColor=#ffe6cc;strokeColor=#D79B00;" parent="1" source="xGlrEXVBaf4qIYOEKneg-7" target="xGlrEXVBaf4qIYOEKneg-5" edge="1">
          <mxGeometry width="50" height="50" relative="1" as="geometry">
            <mxPoint x="520" y="480" as="sourcePoint" />
            <mxPoint x="570" y="430" as="targetPoint" />
            <Array as="points">
              <mxPoint x="840" y="540" />
              <mxPoint x="840" y="380" />
            </Array>
          </mxGeometry>
        </mxCell>
        <mxCell id="xGlrEXVBaf4qIYOEKneg-20" value="&amp;nbsp;3. register&amp;nbsp;" style="edgeLabel;html=1;align=center;verticalAlign=middle;resizable=0;points=[];fontFamily=Gilroy;labelBorderColor=#D79B00;fontSize=12;" parent="xGlrEXVBaf4qIYOEKneg-19" vertex="1" connectable="0">
          <mxGeometry x="-0.7854" y="3" relative="1" as="geometry">
            <mxPoint x="-35" y="17" as="offset" />
          </mxGeometry>
        </mxCell>
        <mxCell id="xGlrEXVBaf4qIYOEKneg-21" value="" style="endArrow=block;html=1;rounded=0;curved=1;startFill=0;startArrow=none;endFill=1;dashed=1;fillColor=#ffe6cc;strokeColor=#d79b00;" parent="1" source="xGlrEXVBaf4qIYOEKneg-5" target="xGlrEXVBaf4qIYOEKneg-7" edge="1">
          <mxGeometry width="50" height="50" relative="1" as="geometry">
            <mxPoint x="680" y="711" as="sourcePoint" />
            <mxPoint x="890" y="510" as="targetPoint" />
            <Array as="points">
              <mxPoint x="1000" y="490" />
            </Array>
          </mxGeometry>
        </mxCell>
        <mxCell id="xGlrEXVBaf4qIYOEKneg-22" value="4. receiveRegister" style="edgeLabel;html=1;align=center;verticalAlign=middle;resizable=0;points=[];fontFamily=Gilroy;labelBackgroundColor=none;fontSize=12;" parent="xGlrEXVBaf4qIYOEKneg-21" vertex="1" connectable="0">
          <mxGeometry x="-0.7854" y="3" relative="1" as="geometry">
            <mxPoint x="-160" y="124" as="offset" />
          </mxGeometry>
        </mxCell>
        <mxCell id="xGlrEXVBaf4qIYOEKneg-23" value="Начало" style="ellipse;whiteSpace=wrap;html=1;fontFamily=Gilroy;fontSize=20;" parent="1" vertex="1">
          <mxGeometry x="120" y="110" width="110" height="50" as="geometry" />
        </mxCell>
        <mxCell id="xGlrEXVBaf4qIYOEKneg-25" value="" style="endArrow=classic;html=1;rounded=0;curved=1;fillColor=#d5e8d4;strokeColor=#82b366;" parent="1" source="xGlrEXVBaf4qIYOEKneg-7" target="xGlrEXVBaf4qIYOEKneg-5" edge="1">
          <mxGeometry width="50" height="50" relative="1" as="geometry">
            <mxPoint x="740" y="721" as="sourcePoint" />
            <mxPoint x="950" y="520" as="targetPoint" />
            <Array as="points">
              <mxPoint x="690" y="470" />
            </Array>
          </mxGeometry>
        </mxCell>
        <mxCell id="xGlrEXVBaf4qIYOEKneg-26" value="&amp;nbsp;5. login&amp;nbsp;" style="edgeLabel;html=1;align=center;verticalAlign=middle;resizable=0;points=[];fontFamily=Gilroy;textShadow=0;labelBorderColor=#97D077;fontSize=12;" parent="xGlrEXVBaf4qIYOEKneg-25" vertex="1" connectable="0">
          <mxGeometry x="-0.7854" y="3" relative="1" as="geometry">
            <mxPoint x="-16" y="-15" as="offset" />
          </mxGeometry>
        </mxCell>
        <mxCell id="xGlrEXVBaf4qIYOEKneg-27" value="" style="endArrow=classic;html=1;rounded=0;curved=1;fillColor=#d5e8d4;strokeColor=#82b366;dashed=1;" parent="1" source="xGlrEXVBaf4qIYOEKneg-5" target="xGlrEXVBaf4qIYOEKneg-7" edge="1">
          <mxGeometry width="50" height="50" relative="1" as="geometry">
            <mxPoint x="660" y="634" as="sourcePoint" />
            <mxPoint x="838" y="450" as="targetPoint" />
            <Array as="points">
              <mxPoint x="520" y="400" />
            </Array>
          </mxGeometry>
        </mxCell>
        <mxCell id="xGlrEXVBaf4qIYOEKneg-28" value="6. receiveLogin" style="edgeLabel;html=1;align=center;verticalAlign=middle;resizable=0;points=[];fontFamily=Gilroy;labelBackgroundColor=none;fontSize=12;" parent="xGlrEXVBaf4qIYOEKneg-27" vertex="1" connectable="0">
          <mxGeometry x="-0.7854" y="3" relative="1" as="geometry">
            <mxPoint x="-49" y="102" as="offset" />
          </mxGeometry>
        </mxCell>
        <mxCell id="xGlrEXVBaf4qIYOEKneg-29" value="Token" style="shape=process;whiteSpace=wrap;html=1;backgroundOutline=1;fillColor=#d5e8d4;strokeColor=#82b366;fontFamily=Gilroy;fontStyle=1;" parent="1" vertex="1">
          <mxGeometry x="481" y="413" width="60" height="20" as="geometry" />
        </mxCell>
        <mxCell id="xGlrEXVBaf4qIYOEKneg-32" value="Auth server&lt;br&gt;address" style="shape=process;whiteSpace=wrap;html=1;backgroundOutline=1;fillColor=#f8cecc;strokeColor=#b85450;fontFamily=Gilroy;fontStyle=1;" parent="1" vertex="1">
          <mxGeometry x="154" y="431" width="90" height="30" as="geometry" />
        </mxCell>
        <mxCell id="xGlrEXVBaf4qIYOEKneg-33" value="" style="endArrow=classic;html=1;rounded=0;curved=1;fillColor=#dae8fc;strokeColor=#6C8EBF;" parent="1" source="xGlrEXVBaf4qIYOEKneg-7" target="xGlrEXVBaf4qIYOEKneg-2" edge="1">
          <mxGeometry width="50" height="50" relative="1" as="geometry">
            <mxPoint x="450" y="711" as="sourcePoint" />
            <mxPoint x="275" y="510" as="targetPoint" />
            <Array as="points">
              <mxPoint x="300" y="380" />
            </Array>
          </mxGeometry>
        </mxCell>
        <mxCell id="xGlrEXVBaf4qIYOEKneg-34" value="&amp;nbsp;7. introduceToken&amp;nbsp;" style="edgeLabel;html=1;align=center;verticalAlign=middle;resizable=0;points=[];fontFamily=Gilroy;labelBorderColor=#6C8EBF;fontSize=12;" parent="xGlrEXVBaf4qIYOEKneg-33" vertex="1" connectable="0">
          <mxGeometry x="0.6753" y="-12" relative="1" as="geometry">
            <mxPoint x="43" y="142" as="offset" />
          </mxGeometry>
        </mxCell>
        <mxCell id="xGlrEXVBaf4qIYOEKneg-35" value="Token" style="shape=process;whiteSpace=wrap;html=1;backgroundOutline=1;fillColor=#dae8fc;strokeColor=#6c8ebf;fontFamily=Gilroy;fontStyle=1;" parent="1" vertex="1">
          <mxGeometry x="300.25" y="413" width="60" height="20" as="geometry" />
        </mxCell>
        <mxCell id="xGlrEXVBaf4qIYOEKneg-38" value="" style="endArrow=classic;html=1;rounded=0;curved=1;fillColor=#e1d5e7;strokeColor=#9673A6;" parent="1" source="xGlrEXVBaf4qIYOEKneg-2" target="xGlrEXVBaf4qIYOEKneg-5" edge="1">
          <mxGeometry width="50" height="50" relative="1" as="geometry">
            <mxPoint x="566" y="480" as="sourcePoint" />
            <mxPoint x="414" y="310" as="targetPoint" />
            <Array as="points" />
          </mxGeometry>
        </mxCell>
        <mxCell id="xGlrEXVBaf4qIYOEKneg-39" value="&amp;nbsp;8. resolveToken&amp;nbsp;" style="edgeLabel;html=1;align=center;verticalAlign=middle;resizable=0;points=[];fontFamily=Gilroy;labelBorderColor=#9673A6;fontSize=12;" parent="xGlrEXVBaf4qIYOEKneg-38" vertex="1" connectable="0">
          <mxGeometry x="0.6753" y="-12" relative="1" as="geometry">
            <mxPoint x="-199" y="-27" as="offset" />
          </mxGeometry>
        </mxCell>
        <mxCell id="xGlrEXVBaf4qIYOEKneg-40" value="" style="endArrow=classic;html=1;rounded=0;curved=1;fillColor=#e1d5e7;strokeColor=#9673A6;dashed=1;" parent="1" source="xGlrEXVBaf4qIYOEKneg-5" target="xGlrEXVBaf4qIYOEKneg-2" edge="1">
          <mxGeometry width="50" height="50" relative="1" as="geometry">
            <mxPoint x="400" y="370" as="sourcePoint" />
            <mxPoint x="700" y="370" as="targetPoint" />
            <Array as="points">
              <mxPoint x="440" y="370" />
            </Array>
          </mxGeometry>
        </mxCell>
        <mxCell id="xGlrEXVBaf4qIYOEKneg-41" value="&amp;nbsp;9. receiveResolveToken&amp;nbsp;" style="edgeLabel;html=1;align=center;verticalAlign=middle;resizable=0;points=[];fontFamily=Gilroy;labelBorderColor=none;fontSize=12;" parent="xGlrEXVBaf4qIYOEKneg-40" vertex="1" connectable="0">
          <mxGeometry x="0.6753" y="-12" relative="1" as="geometry">
            <mxPoint x="105" y="32" as="offset" />
          </mxGeometry>
        </mxCell>
        <mxCell id="xGlrEXVBaf4qIYOEKneg-42" value="" style="endArrow=classic;html=1;rounded=0;curved=1;fillColor=#dae8fc;strokeColor=#6C8EBF;dashed=1;" parent="1" source="xGlrEXVBaf4qIYOEKneg-2" target="xGlrEXVBaf4qIYOEKneg-7" edge="1">
          <mxGeometry width="50" height="50" relative="1" as="geometry">
            <mxPoint x="562" y="610" as="sourcePoint" />
            <mxPoint x="410" y="440" as="targetPoint" />
            <Array as="points">
              <mxPoint x="390" y="400" />
            </Array>
          </mxGeometry>
        </mxCell>
        <mxCell id="xGlrEXVBaf4qIYOEKneg-43" value="10. receiveIntroduce" style="edgeLabel;html=1;align=center;verticalAlign=middle;resizable=0;points=[];fontFamily=Gilroy;labelBorderColor=none;fontSize=12;labelBackgroundColor=none;" parent="xGlrEXVBaf4qIYOEKneg-42" vertex="1" connectable="0">
          <mxGeometry x="0.6753" y="-12" relative="1" as="geometry">
            <mxPoint x="19" y="-79" as="offset" />
          </mxGeometry>
        </mxCell>
        <mxCell id="xGlrEXVBaf4qIYOEKneg-45" value="" style="endArrow=classic;html=1;rounded=0;" parent="1" edge="1">
          <mxGeometry width="50" height="50" relative="1" as="geometry">
            <mxPoint x="300.25" y="639.17" as="sourcePoint" />
            <mxPoint x="460.25" y="639.17" as="targetPoint" />
          </mxGeometry>
        </mxCell>
        <mxCell id="xGlrEXVBaf4qIYOEKneg-46" value="Запрос" style="text;html=1;align=center;verticalAlign=middle;whiteSpace=wrap;rounded=0;fontFamily=Gilroy;strokeColor=default;" parent="1" vertex="1">
          <mxGeometry x="300.25" y="615" width="50" height="20" as="geometry" />
        </mxCell>
        <mxCell id="xGlrEXVBaf4qIYOEKneg-47" value="" style="endArrow=none;html=1;rounded=0;fontSize=12;strokeWidth=4;" parent="1" edge="1">
          <mxGeometry width="50" height="50" relative="1" as="geometry">
            <mxPoint x="40" y="600" as="sourcePoint" />
            <mxPoint x="840" y="600" as="targetPoint" />
          </mxGeometry>
        </mxCell>
        <mxCell id="xGlrEXVBaf4qIYOEKneg-49" value="Легенда" style="text;html=1;align=left;verticalAlign=middle;whiteSpace=wrap;rounded=0;fontFamily=Gilroy;fontSize=22;" parent="1" vertex="1">
          <mxGeometry x="70.25" y="598.17" width="106" height="61.83" as="geometry" />
        </mxCell>
        <mxCell id="xGlrEXVBaf4qIYOEKneg-50" value="" style="endArrow=classic;html=1;rounded=0;dashed=1;" parent="1" edge="1">
          <mxGeometry width="50" height="50" relative="1" as="geometry">
            <mxPoint x="640.25" y="639.17" as="sourcePoint" />
            <mxPoint x="800.25" y="639.17" as="targetPoint" />
          </mxGeometry>
        </mxCell>
        <mxCell id="xGlrEXVBaf4qIYOEKneg-51" value="Ответ" style="text;html=1;align=center;verticalAlign=middle;whiteSpace=wrap;rounded=0;fontFamily=Gilroy;" parent="1" vertex="1">
          <mxGeometry x="640.25" y="616" width="39.75" height="20" as="geometry" />
        </mxCell>
        <mxCell id="xGlrEXVBaf4qIYOEKneg-52" value="Token" style="shape=process;whiteSpace=wrap;html=1;backgroundOutline=1;fillColor=#e1d5e7;strokeColor=#9673a6;fontFamily=Gilroy;fontStyle=1;" parent="1" vertex="1">
          <mxGeometry x="404" y="298" width="60" height="20" as="geometry" />
        </mxCell>
        <mxCell id="xGlrEXVBaf4qIYOEKneg-53" value="Нагрузка" style="shape=process;whiteSpace=wrap;html=1;backgroundOutline=1;fontFamily=Gilroy;" parent="1" vertex="1">
          <mxGeometry x="510.25" y="630" width="80" height="20" as="geometry" />
        </mxCell>
        <mxCell id="xGlrEXVBaf4qIYOEKneg-56" style="edgeStyle=orthogonalEdgeStyle;rounded=0;orthogonalLoop=1;jettySize=auto;html=1;" parent="1" source="xGlrEXVBaf4qIYOEKneg-54" target="xGlrEXVBaf4qIYOEKneg-55" edge="1">
          <mxGeometry relative="1" as="geometry" />
        </mxCell>
        <mxCell id="xGlrEXVBaf4qIYOEKneg-54" value="" style="ellipse;whiteSpace=wrap;html=1;aspect=fixed;strokeColor=#666666;fillColor=#f5f5f5;fontColor=#333333;" parent="1" vertex="1">
          <mxGeometry x="330.25" y="680" width="40" height="40" as="geometry" />
        </mxCell>
        <mxCell id="xGlrEXVBaf4qIYOEKneg-61" style="edgeStyle=orthogonalEdgeStyle;rounded=0;orthogonalLoop=1;jettySize=auto;html=1;" parent="1" source="xGlrEXVBaf4qIYOEKneg-55" target="xGlrEXVBaf4qIYOEKneg-57" edge="1">
          <mxGeometry relative="1" as="geometry" />
        </mxCell>
        <mxCell id="xGlrEXVBaf4qIYOEKneg-55" value="" style="ellipse;whiteSpace=wrap;html=1;aspect=fixed;fillColor=#f8cecc;strokeColor=#b85450;" parent="1" vertex="1">
          <mxGeometry x="410.25" y="680" width="40" height="40" as="geometry" />
        </mxCell>
        <mxCell id="xGlrEXVBaf4qIYOEKneg-62" style="edgeStyle=orthogonalEdgeStyle;rounded=0;orthogonalLoop=1;jettySize=auto;html=1;" parent="1" source="xGlrEXVBaf4qIYOEKneg-57" target="xGlrEXVBaf4qIYOEKneg-58" edge="1">
          <mxGeometry relative="1" as="geometry" />
        </mxCell>
        <mxCell id="xGlrEXVBaf4qIYOEKneg-57" value="" style="ellipse;whiteSpace=wrap;html=1;aspect=fixed;fillColor=#fff2cc;strokeColor=#d6b656;" parent="1" vertex="1">
          <mxGeometry x="490.25" y="680" width="40" height="40" as="geometry" />
        </mxCell>
        <mxCell id="xGlrEXVBaf4qIYOEKneg-63" style="edgeStyle=orthogonalEdgeStyle;rounded=0;orthogonalLoop=1;jettySize=auto;html=1;" parent="1" source="xGlrEXVBaf4qIYOEKneg-58" target="xGlrEXVBaf4qIYOEKneg-59" edge="1">
          <mxGeometry relative="1" as="geometry" />
        </mxCell>
        <mxCell id="xGlrEXVBaf4qIYOEKneg-58" value="" style="ellipse;whiteSpace=wrap;html=1;aspect=fixed;fillColor=#d5e8d4;strokeColor=#82b366;" parent="1" vertex="1">
          <mxGeometry x="570.25" y="680" width="40" height="40" as="geometry" />
        </mxCell>
        <mxCell id="xGlrEXVBaf4qIYOEKneg-64" style="edgeStyle=orthogonalEdgeStyle;rounded=0;orthogonalLoop=1;jettySize=auto;html=1;" parent="1" source="xGlrEXVBaf4qIYOEKneg-59" target="xGlrEXVBaf4qIYOEKneg-60" edge="1">
          <mxGeometry relative="1" as="geometry" />
        </mxCell>
        <mxCell id="xGlrEXVBaf4qIYOEKneg-59" value="" style="ellipse;whiteSpace=wrap;html=1;aspect=fixed;fillColor=#dae8fc;strokeColor=#6c8ebf;" parent="1" vertex="1">
          <mxGeometry x="650.25" y="680" width="40" height="40" as="geometry" />
        </mxCell>
        <mxCell id="xGlrEXVBaf4qIYOEKneg-60" value="" style="ellipse;whiteSpace=wrap;html=1;aspect=fixed;fillColor=#e1d5e7;strokeColor=#9673a6;" parent="1" vertex="1">
          <mxGeometry x="730.25" y="680" width="40" height="40" as="geometry" />
        </mxCell>
        <mxCell id="xGlrEXVBaf4qIYOEKneg-65" value="Последовательность&lt;br&gt;запросов" style="text;html=1;align=left;verticalAlign=middle;whiteSpace=wrap;rounded=0;fontFamily=Gilroy;fontSize=22;" parent="1" vertex="1">
          <mxGeometry x="70.25" y="680" width="220" height="40" as="geometry" />
        </mxCell>
        <mxCell id="xGlrEXVBaf4qIYOEKneg-66" value="" style="endArrow=async;html=1;rounded=0;fontColor=#6C8EBF;strokeColor=#6C8EBF;dashed=1;dashPattern=1 4;strokeWidth=1;startArrow=none;startFill=0;endFill=1;" parent="1" edge="1">
          <mxGeometry width="50" height="50" relative="1" as="geometry">
            <mxPoint x="255" y="340" as="sourcePoint" />
            <mxPoint x="279" y="310" as="targetPoint" />
            <Array as="points">
              <mxPoint x="255" y="310" />
            </Array>
          </mxGeometry>
        </mxCell>
        <mxCell id="xGlrEXVBaf4qIYOEKneg-68" value="" style="endArrow=async;html=1;rounded=1;fillColor=#e1d5e7;strokeColor=#9673a6;dashed=1;dashPattern=1 4;endFill=1;curved=0;" parent="1" edge="1">
          <mxGeometry width="50" height="50" relative="1" as="geometry">
            <mxPoint x="279" y="326" as="sourcePoint" />
            <mxPoint x="276" y="338" as="targetPoint" />
            <Array as="points">
              <mxPoint x="260" y="321" />
            </Array>
          </mxGeometry>
        </mxCell>
        <mxCell id="BVxNnDn93Nx2W4qiLXiv-1" value="2048-bit&lt;br&gt;server token" style="shape=process;whiteSpace=wrap;html=1;backgroundOutline=1;fontFamily=Gilroy;fontStyle=1" parent="1" vertex="1">
          <mxGeometry x="385" y="195" width="100.5" height="30" as="geometry" />
        </mxCell>
        <mxCell id="BVxNnDn93Nx2W4qiLXiv-5" value="Sign-up&lt;br&gt;data" style="shape=process;whiteSpace=wrap;html=1;backgroundOutline=1;fillColor=#fff2cc;strokeColor=#d6b656;fontFamily=Gilroy;fontStyle=1;" parent="1" vertex="1">
          <mxGeometry x="710" y="508" width="63" height="30" as="geometry" />
        </mxCell>
        <mxCell id="BVxNnDn93Nx2W4qiLXiv-6" value="Log-in&lt;br&gt;data" style="shape=process;whiteSpace=wrap;html=1;backgroundOutline=1;fillColor=#d5e8d4;strokeColor=#82b366;fontFamily=Gilroy;fontStyle=1;" parent="1" vertex="1">
          <mxGeometry x="596" y="439" width="60" height="30" as="geometry" />
        </mxCell>
      </root>
    </mxGraphModel>
  </diagram>
</mxfile>
